<?xml version="1.0" encoding="utf-8"?>
<!-- Generator: Adobe Illustrator 23.0.3, SVG Export Plug-In . SVG Version: 6.00 Build 0)  -->
<svg version="1.1" id="Layer_1" xmlns="http://www.w3.org/2000/svg" xmlns:xlink="http://www.w3.org/1999/xlink" x="0px" y="0px"
	 viewBox="0 0 512 512" style="enable-background:new 0 0 512 512;" xml:space="preserve">
<style type="text/css">
	.st0{fill:#EEFF05;}
	.st1{fill:#F18700;}
	.st2{fill:#EEEB05;}
	.st3{fill:#EED705;}
	.st4{fill:#E0E0E2;}
</style>
<polygon class="st0" points="11.1,370.6 11.1,353.7 256,212.3 500.9,353.7 500.9,370.6 256,512 "/>
<path id="SVGCleanerId_0" class="st1" d="M382.2,336.9L305,26h0c-0.9-6.5-5.7-12.8-14.2-17.7c-19.1-11-50.4-11-69.6,0
	c-8.5,4.9-13.2,11.2-14.2,17.7h0l-77.3,311c-9.1,24.1,2.5,50.3,34.7,68.9c50.3,29.1,132.7,29.1,183,0
	C379.8,387.3,391.4,361,382.2,336.9z"/>
<g>
	<path id="SVGCleanerId_0_1_" class="st2" d="M382.2,336.9L305,26h0c-0.9-6.5-5.7-12.8-14.2-17.7c-19.1-11-50.4-11-69.6,0
		c-8.5,4.9-13.2,11.2-14.2,17.7h0l-77.3,311c-9.1,24.1,2.5,50.3,34.7,68.9c50.3,29.1,132.7,29.1,183,0
		C379.8,387.3,391.4,361,382.2,336.9z"/>
</g>
<polygon class="st2" points="256,495.1 256,512 11.1,370.6 11.1,353.7 "/>
<polygon class="st3" points="256,495.1 256,512 500.9,370.6 500.9,353.7 "/>
<path class="st0" d="M221.2,48.4c-19.1-11-19.1-29.1,0-40.2s50.4-11,69.6,0c19.1,11,19.1,29.1,0,40.2
	C271.7,59.5,240.3,59.5,221.2,48.4z"/>
<path class="st3" d="M235.1,40.4c-11.5-6.6-11.5-17.5,0-24.1s30.3-6.6,41.7,0c11.5,6.6,11.5,17.5,0,24.1S246.6,47,235.1,40.4z"/>
<path class="st4" d="M363,259.4l-26.3-105.8c-3.3,2.7-7,5.3-11.2,7.8c-38.2,22.1-100.7,22.1-138.9,0c-4.2-2.4-7.9-5-11.2-7.8l0,0
	L149,259.4c5.1,5.6,11.2,10.8,18.4,15.6c48.7,32.4,128.4,32.4,177.1,0C351.8,270.2,357.9,264.9,363,259.4z"/>
</svg>
